<?xml version="1.0" encoding="utf-8"?>
<!-- Generator: Adobe Illustrator 23.0.6, SVG Export Plug-In . SVG Version: 6.00 Build 0)  -->
<svg version="1.1"
	 id="svg2" inkscape:version="0.48.4 r9939" sodipodi:docname="pfd_vsi_scale.svg" xmlns:cc="http://creativecommons.org/ns#" xmlns:dc="http://purl.org/dc/elements/1.1/" xmlns:inkscape="http://www.inkscape.org/namespaces/inkscape" xmlns:rdf="http://www.w3.org/1999/02/22-rdf-syntax-ns#" xmlns:sodipodi="http://sodipodi.sourceforge.net/DTD/sodipodi-0.dtd" xmlns:svg="http://www.w3.org/2000/svg"
	 xmlns="http://www.w3.org/2000/svg" xmlns:xlink="http://www.w3.org/1999/xlink" x="0px" y="0px" viewBox="0 0 19 150"
	 style="enable-background:new 0 0 19 150;" xml:space="preserve">
<style type="text/css">
	.st0{fill:#4D4D4D;}
	.st1{fill:#FFFFFF;}
	.st2{font-family:'LiberationSans-Bold';}
	.st3{font-size:10px;}
</style>
<sodipodi:namedview  bordercolor="#666666" borderopacity="1.0" id="base" inkscape:current-layer="layer1" inkscape:cx="-1789.8906" inkscape:cy="58.29529" inkscape:document-units="px" inkscape:guide-bbox="true" inkscape:object-nodes="true" inkscape:object-paths="false" inkscape:pageopacity="0.0" inkscape:pageshadow="2" inkscape:snap-center="false" inkscape:snap-intersection-paths="true" inkscape:snap-midpoints="true" inkscape:snap-nodes="true" inkscape:snap-object-midpoints="false" inkscape:snap-smooth-nodes="false" inkscape:window-height="1005" inkscape:window-maximized="1" inkscape:window-width="1920" inkscape:window-x="-9" inkscape:window-y="-9" inkscape:zoom="0.12499999" pagecolor="#ffffff" showgrid="false" showguides="true">
	</sodipodi:namedview>
<rect id="rect3333-8" y="0" class="st0" width="19" height="150"/>
<rect id="rect4256" x="0" y="74.5" class="st1" width="15" height="1"/>
<rect id="rect4256-2" x="11" y="59.5" class="st1" width="4" height="1"/>
<rect id="rect4256-2-4" x="11" y="44.5" class="st1" width="4" height="1"/>
<rect id="rect4256-2-4-5" x="11" y="34.5" class="st1" width="4" height="1"/>
<path id="rect4256-2-4-5-5" inkscape:connector-curvature="0" class="st1" d="M11,24.5h4v1h-4V24.5z"/>
<rect id="rect4256-2-4-5-5-1" x="11" y="14.5" class="st1" width="4" height="1"/>
<rect id="rect4256-2-4-5-5-1-7" x="11" y="4.5" class="st1" width="4" height="1"/>
<rect id="rect4256-2-5" x="11" y="89.5" class="st1" width="4" height="1"/>
<path id="rect4256-2-4-2" inkscape:connector-curvature="0" class="st1" d="M11,105.5h4v-1h-4V105.5z"/>
<rect id="rect4256-2-4-5-7" x="11" y="114.5" class="st1" width="4" height="1"/>
<rect id="rect4256-2-4-5-5-6" x="11" y="124.5" class="st1" width="4" height="1"/>
<rect id="rect4256-2-4-5-5-1-1" x="11" y="134.5" class="st1" width="4" height="1"/>
<rect id="rect4256-2-4-5-5-1-7-4" x="11" y="144.5" class="st1" width="4" height="1"/>
<text transform="matrix(1 0 0 1 5.1965 128.6475)" class="st1 st2 st3">5</text>
<text transform="matrix(1 0 0 1 5.1963 108.5166)" class="st1 st2 st3">2</text>
<text transform="matrix(1 0 0 1 1.831055e-04 148.7651)" class="st1 st2 st3">10</text>
<text transform="matrix(1 0 0 1 5.1964 48.6425)" class="st1 st2 st3">2</text>
<text transform="matrix(1 0 0 1 5.1964 28.4219)" class="st1 st2 st3">5</text>
<text transform="matrix(1 0 0 1 -6.103516e-05 8.67)" class="st1 st2 st3">10</text>
</svg>
